# xmcd
#
# Track frame offsets: 
#        150
#        11560
#        21744
#        37755
#        48920
#        61295
#        71600
#        82977
#        90442
#        105987
#        117227
#        127242
#        138087
#        150022
#        159792
#        169772
#
# Disc length: 2440 seconds
#
# Revision: 3
# Processed by: cddbd v1.5.1PL0 Copyright (c) Steve Scherf et al.
# Submitted via: ExactAudioCopy v0.95a5
#
DISCID=b7098610
DTITLE=Various Artist - Country and Western Songs - CD2
DYEAR=1995
DGENRE=Country
TTITLE0=Dave Dudley - Sentimental Journey
TTITLE1=David Price - Jack Knife
TTITLE2=Rick Pilgreen - If I Had A Chance
TTITLE3=Barbara Perry - I'll Hold You Closer Than Love
TTITLE4=Bobby Bare - The Year That Clayton Delaney Died
TTITLE5=Linda Manning - Bonjour Tristesse
TTITLE6=Buddy Mredith - A New Girl In Town
TTITLE7=The Czech Symphony Orchestra - Tausend Meilen Staub
TTITLE8=Karen O'Donnell - I Know What It's All About Now, Mama
TTITLE9=Bobby Bare - That's How I Got To Memphis
TTITLE10=Bud Logan - I Was On my Way
TTITLE11=Freddy Quinn - Tom Dooly
TTITLE12=Dave Dudley - Eagles Gly Alone
TTITLE13=Ronnie Rogers - The Fool On The Stool
TTITLE14=Bobby Bare - West Virginia Woman
TTITLE15=George Kent - Mama Bake A Pie, Daddy Kill A Chicken
EXTD=
EXTT0=
EXTT1=
EXTT2=
EXTT3=
EXTT4=
EXTT5=
EXTT6=
EXTT7=
EXTT8=
EXTT9=
EXTT10=
EXTT11=
EXTT12=
EXTT13=
EXTT14=
EXTT15=
PLAYORDER=
